<mxfile host="Electron" modified="2024-05-11T15:16:29.173Z" agent="Mozilla/5.0 (Windows NT 10.0; Win64; x64) AppleWebKit/537.36 (KHTML, like Gecko) draw.io/22.1.18 Chrome/120.0.6099.199 Electron/28.1.2 Safari/537.36" etag="htCrR4rrhWmUcPTM6lm6" version="22.1.18" type="device">
  <diagram name="Page-1" id="7TTD3cpKinKYoJwU7Lcs">
    <mxGraphModel dx="1315" dy="2018" grid="1" gridSize="10" guides="1" tooltips="1" connect="1" arrows="1" fold="1" page="1" pageScale="1" pageWidth="850" pageHeight="1100" math="0" shadow="0">
      <root>
        <mxCell id="0" />
        <mxCell id="1" parent="0" />
        <mxCell id="F35jx74PrOIdeF3ReqpK-1" value="&lt;h1&gt;Kruskal&#39;s Algorithm&lt;/h1&gt;&lt;p&gt;&lt;/p&gt;&lt;ul&gt;&lt;li&gt;&lt;font style=&quot;font-size: 14px;&quot;&gt;Greedy algorithm&lt;/font&gt;&lt;/li&gt;&lt;li&gt;&lt;font size=&quot;3&quot;&gt;Finds the minimum spanning tree for a weighted, undirected graph&lt;/font&gt;&lt;/li&gt;&lt;ul&gt;&lt;li&gt;&lt;font size=&quot;3&quot;&gt;Adds increasing cost edges at each step&lt;/font&gt;&lt;/li&gt;&lt;li&gt;&lt;font size=&quot;3&quot;&gt;Avoids any cycle at each step&lt;/font&gt;&lt;/li&gt;&lt;/ul&gt;&lt;/ul&gt;&lt;p&gt;&lt;/p&gt;" style="text;html=1;strokeColor=none;fillColor=none;spacing=5;spacingTop=-20;whiteSpace=wrap;overflow=hidden;rounded=0;" parent="1" vertex="1">
          <mxGeometry x="340" y="-20" width="410" height="160" as="geometry" />
        </mxCell>
        <mxCell id="PL-AgUQmlZ-1JZNhK2am-4" style="rounded=0;orthogonalLoop=1;jettySize=auto;html=1;exitX=0.5;exitY=1;exitDx=0;exitDy=0;entryX=0.5;entryY=0;entryDx=0;entryDy=0;endArrow=none;endFill=0;" parent="1" source="F35jx74PrOIdeF3ReqpK-2" target="F35jx74PrOIdeF3ReqpK-11" edge="1">
          <mxGeometry relative="1" as="geometry" />
        </mxCell>
        <mxCell id="F35jx74PrOIdeF3ReqpK-2" value="&lt;font style=&quot;font-size: 18px;&quot;&gt;&lt;b&gt;B&lt;/b&gt;&lt;/font&gt;" style="ellipse;whiteSpace=wrap;html=1;aspect=fixed;" parent="1" vertex="1">
          <mxGeometry x="640" y="200" width="40" height="40" as="geometry" />
        </mxCell>
        <mxCell id="PL-AgUQmlZ-1JZNhK2am-3" style="rounded=0;orthogonalLoop=1;jettySize=auto;html=1;exitX=1;exitY=0.5;exitDx=0;exitDy=0;entryX=0;entryY=0.5;entryDx=0;entryDy=0;endArrow=none;endFill=0;" parent="1" source="F35jx74PrOIdeF3ReqpK-5" target="F35jx74PrOIdeF3ReqpK-11" edge="1">
          <mxGeometry relative="1" as="geometry" />
        </mxCell>
        <mxCell id="w3LlIIUNzbDRQgeO9Z__-14" style="rounded=0;orthogonalLoop=1;jettySize=auto;html=1;exitX=1;exitY=0;exitDx=0;exitDy=0;entryX=0;entryY=1;entryDx=0;entryDy=0;endArrow=none;endFill=0;" edge="1" parent="1" source="F35jx74PrOIdeF3ReqpK-5" target="F35jx74PrOIdeF3ReqpK-2">
          <mxGeometry relative="1" as="geometry" />
        </mxCell>
        <mxCell id="F35jx74PrOIdeF3ReqpK-5" value="&lt;font style=&quot;font-size: 18px;&quot;&gt;&lt;b&gt;C&lt;/b&gt;&lt;/font&gt;" style="ellipse;whiteSpace=wrap;html=1;aspect=fixed;" parent="1" vertex="1">
          <mxGeometry x="440" y="360" width="40" height="40" as="geometry" />
        </mxCell>
        <mxCell id="w3LlIIUNzbDRQgeO9Z__-1" style="rounded=0;orthogonalLoop=1;jettySize=auto;html=1;exitX=1;exitY=0;exitDx=0;exitDy=0;entryX=0;entryY=0.5;entryDx=0;entryDy=0;endArrow=none;endFill=0;" edge="1" parent="1" source="F35jx74PrOIdeF3ReqpK-8" target="F35jx74PrOIdeF3ReqpK-9">
          <mxGeometry relative="1" as="geometry" />
        </mxCell>
        <mxCell id="w3LlIIUNzbDRQgeO9Z__-3" style="rounded=0;orthogonalLoop=1;jettySize=auto;html=1;exitX=1;exitY=1;exitDx=0;exitDy=0;entryX=0;entryY=0.5;entryDx=0;entryDy=0;endArrow=none;endFill=0;" edge="1" parent="1" source="F35jx74PrOIdeF3ReqpK-8" target="F35jx74PrOIdeF3ReqpK-5">
          <mxGeometry relative="1" as="geometry" />
        </mxCell>
        <mxCell id="F35jx74PrOIdeF3ReqpK-8" value="&lt;font style=&quot;font-size: 18px;&quot;&gt;&lt;b&gt;E&lt;/b&gt;&lt;/font&gt;" style="ellipse;whiteSpace=wrap;html=1;aspect=fixed;" parent="1" vertex="1">
          <mxGeometry x="280" y="280" width="40" height="40" as="geometry" />
        </mxCell>
        <mxCell id="PL-AgUQmlZ-1JZNhK2am-1" style="rounded=0;orthogonalLoop=1;jettySize=auto;html=1;exitX=1;exitY=0.5;exitDx=0;exitDy=0;entryX=0;entryY=0.5;entryDx=0;entryDy=0;endArrow=none;endFill=0;" parent="1" source="F35jx74PrOIdeF3ReqpK-9" target="F35jx74PrOIdeF3ReqpK-2" edge="1">
          <mxGeometry relative="1" as="geometry" />
        </mxCell>
        <mxCell id="PL-AgUQmlZ-1JZNhK2am-2" style="rounded=0;orthogonalLoop=1;jettySize=auto;html=1;exitX=0.5;exitY=1;exitDx=0;exitDy=0;entryX=0.5;entryY=0;entryDx=0;entryDy=0;endArrow=none;endFill=0;" parent="1" source="F35jx74PrOIdeF3ReqpK-9" target="F35jx74PrOIdeF3ReqpK-5" edge="1">
          <mxGeometry relative="1" as="geometry" />
        </mxCell>
        <mxCell id="F35jx74PrOIdeF3ReqpK-9" value="&lt;font style=&quot;font-size: 18px;&quot;&gt;&lt;b&gt;A&lt;/b&gt;&lt;/font&gt;" style="ellipse;whiteSpace=wrap;html=1;aspect=fixed;" parent="1" vertex="1">
          <mxGeometry x="440" y="200" width="40" height="40" as="geometry" />
        </mxCell>
        <mxCell id="F35jx74PrOIdeF3ReqpK-11" value="&lt;font style=&quot;font-size: 18px;&quot;&gt;&lt;b&gt;D&lt;/b&gt;&lt;/font&gt;" style="ellipse;whiteSpace=wrap;html=1;aspect=fixed;" parent="1" vertex="1">
          <mxGeometry x="640" y="360" width="40" height="40" as="geometry" />
        </mxCell>
        <mxCell id="F35jx74PrOIdeF3ReqpK-105" value="1" style="text;html=1;strokeColor=none;fillColor=none;align=center;verticalAlign=middle;whiteSpace=wrap;rounded=0;" parent="1" vertex="1">
          <mxGeometry y="325" width="40" height="30" as="geometry" />
        </mxCell>
        <mxCell id="w3LlIIUNzbDRQgeO9Z__-4" value="15" style="text;html=1;strokeColor=none;fillColor=none;align=center;verticalAlign=middle;whiteSpace=wrap;rounded=0;" vertex="1" parent="1">
          <mxGeometry x="350" y="220" width="30" height="30" as="geometry" />
        </mxCell>
        <mxCell id="w3LlIIUNzbDRQgeO9Z__-7" value="10" style="text;html=1;strokeColor=none;fillColor=none;align=center;verticalAlign=middle;whiteSpace=wrap;rounded=0;" vertex="1" parent="1">
          <mxGeometry x="540" y="260" width="30" height="30" as="geometry" />
        </mxCell>
        <mxCell id="w3LlIIUNzbDRQgeO9Z__-8" value="13" style="text;html=1;strokeColor=none;fillColor=none;align=center;verticalAlign=middle;whiteSpace=wrap;rounded=0;" vertex="1" parent="1">
          <mxGeometry x="425" y="285" width="30" height="30" as="geometry" />
        </mxCell>
        <mxCell id="w3LlIIUNzbDRQgeO9Z__-9" value="20" style="text;html=1;strokeColor=none;fillColor=none;align=center;verticalAlign=middle;whiteSpace=wrap;rounded=0;" vertex="1" parent="1">
          <mxGeometry x="360" y="355" width="30" height="30" as="geometry" />
        </mxCell>
        <mxCell id="w3LlIIUNzbDRQgeO9Z__-10" value="6" style="text;html=1;strokeColor=none;fillColor=none;align=center;verticalAlign=middle;whiteSpace=wrap;rounded=0;" vertex="1" parent="1">
          <mxGeometry x="550" y="390" width="30" height="30" as="geometry" />
        </mxCell>
        <mxCell id="w3LlIIUNzbDRQgeO9Z__-11" value="8" style="text;html=1;strokeColor=none;fillColor=none;align=center;verticalAlign=middle;whiteSpace=wrap;rounded=0;" vertex="1" parent="1">
          <mxGeometry x="670" y="280" width="30" height="30" as="geometry" />
        </mxCell>
        <mxCell id="w3LlIIUNzbDRQgeO9Z__-12" value="5" style="text;html=1;strokeColor=none;fillColor=none;align=center;verticalAlign=middle;whiteSpace=wrap;rounded=0;" vertex="1" parent="1">
          <mxGeometry x="550" y="180" width="30" height="30" as="geometry" />
        </mxCell>
        <mxCell id="w3LlIIUNzbDRQgeO9Z__-15" style="rounded=0;orthogonalLoop=1;jettySize=auto;html=1;exitX=0.5;exitY=1;exitDx=0;exitDy=0;entryX=0.5;entryY=0;entryDx=0;entryDy=0;endArrow=none;endFill=0;" edge="1" parent="1" source="w3LlIIUNzbDRQgeO9Z__-16" target="w3LlIIUNzbDRQgeO9Z__-26">
          <mxGeometry relative="1" as="geometry" />
        </mxCell>
        <mxCell id="w3LlIIUNzbDRQgeO9Z__-16" value="&lt;font style=&quot;font-size: 18px;&quot;&gt;&lt;b&gt;B&lt;/b&gt;&lt;/font&gt;" style="ellipse;whiteSpace=wrap;html=1;aspect=fixed;" vertex="1" parent="1">
          <mxGeometry x="640" y="2050" width="40" height="40" as="geometry" />
        </mxCell>
        <mxCell id="w3LlIIUNzbDRQgeO9Z__-17" style="rounded=0;orthogonalLoop=1;jettySize=auto;html=1;exitX=1;exitY=0.5;exitDx=0;exitDy=0;entryX=0;entryY=0.5;entryDx=0;entryDy=0;endArrow=none;endFill=0;" edge="1" parent="1" source="w3LlIIUNzbDRQgeO9Z__-19" target="w3LlIIUNzbDRQgeO9Z__-26">
          <mxGeometry relative="1" as="geometry" />
        </mxCell>
        <mxCell id="w3LlIIUNzbDRQgeO9Z__-19" value="&lt;font style=&quot;font-size: 18px;&quot;&gt;&lt;b&gt;C&lt;/b&gt;&lt;/font&gt;" style="ellipse;whiteSpace=wrap;html=1;aspect=fixed;" vertex="1" parent="1">
          <mxGeometry x="440" y="2210" width="40" height="40" as="geometry" />
        </mxCell>
        <mxCell id="w3LlIIUNzbDRQgeO9Z__-20" style="rounded=0;orthogonalLoop=1;jettySize=auto;html=1;exitX=1;exitY=0;exitDx=0;exitDy=0;entryX=0;entryY=0.5;entryDx=0;entryDy=0;endArrow=none;endFill=0;" edge="1" parent="1" source="w3LlIIUNzbDRQgeO9Z__-22" target="w3LlIIUNzbDRQgeO9Z__-25">
          <mxGeometry relative="1" as="geometry" />
        </mxCell>
        <mxCell id="w3LlIIUNzbDRQgeO9Z__-22" value="&lt;font style=&quot;font-size: 18px;&quot;&gt;&lt;b&gt;E&lt;/b&gt;&lt;/font&gt;" style="ellipse;whiteSpace=wrap;html=1;aspect=fixed;" vertex="1" parent="1">
          <mxGeometry x="280" y="2130" width="40" height="40" as="geometry" />
        </mxCell>
        <mxCell id="w3LlIIUNzbDRQgeO9Z__-23" style="rounded=0;orthogonalLoop=1;jettySize=auto;html=1;exitX=1;exitY=0.5;exitDx=0;exitDy=0;entryX=0;entryY=0.5;entryDx=0;entryDy=0;endArrow=none;endFill=0;" edge="1" parent="1" source="w3LlIIUNzbDRQgeO9Z__-25" target="w3LlIIUNzbDRQgeO9Z__-16">
          <mxGeometry relative="1" as="geometry" />
        </mxCell>
        <mxCell id="w3LlIIUNzbDRQgeO9Z__-25" value="&lt;font style=&quot;font-size: 18px;&quot;&gt;&lt;b&gt;A&lt;/b&gt;&lt;/font&gt;" style="ellipse;whiteSpace=wrap;html=1;aspect=fixed;" vertex="1" parent="1">
          <mxGeometry x="440" y="2050" width="40" height="40" as="geometry" />
        </mxCell>
        <mxCell id="w3LlIIUNzbDRQgeO9Z__-26" value="&lt;font style=&quot;font-size: 18px;&quot;&gt;&lt;b&gt;D&lt;/b&gt;&lt;/font&gt;" style="ellipse;whiteSpace=wrap;html=1;aspect=fixed;" vertex="1" parent="1">
          <mxGeometry x="640" y="2210" width="40" height="40" as="geometry" />
        </mxCell>
        <mxCell id="w3LlIIUNzbDRQgeO9Z__-27" value="15" style="text;html=1;strokeColor=none;fillColor=none;align=center;verticalAlign=middle;whiteSpace=wrap;rounded=0;" vertex="1" parent="1">
          <mxGeometry x="350" y="2070" width="30" height="30" as="geometry" />
        </mxCell>
        <mxCell id="w3LlIIUNzbDRQgeO9Z__-31" value="6" style="text;html=1;strokeColor=none;fillColor=none;align=center;verticalAlign=middle;whiteSpace=wrap;rounded=0;" vertex="1" parent="1">
          <mxGeometry x="550" y="2240" width="30" height="30" as="geometry" />
        </mxCell>
        <mxCell id="w3LlIIUNzbDRQgeO9Z__-32" value="8" style="text;html=1;strokeColor=none;fillColor=none;align=center;verticalAlign=middle;whiteSpace=wrap;rounded=0;" vertex="1" parent="1">
          <mxGeometry x="670" y="2130" width="30" height="30" as="geometry" />
        </mxCell>
        <mxCell id="w3LlIIUNzbDRQgeO9Z__-33" value="5" style="text;html=1;strokeColor=none;fillColor=none;align=center;verticalAlign=middle;whiteSpace=wrap;rounded=0;" vertex="1" parent="1">
          <mxGeometry x="550" y="2030" width="30" height="30" as="geometry" />
        </mxCell>
        <mxCell id="w3LlIIUNzbDRQgeO9Z__-34" value="" style="shape=flexArrow;endArrow=classic;html=1;rounded=0;" edge="1" parent="1">
          <mxGeometry width="50" height="50" relative="1" as="geometry">
            <mxPoint x="554.5" y="450" as="sourcePoint" />
            <mxPoint x="554.5" y="540" as="targetPoint" />
          </mxGeometry>
        </mxCell>
        <mxCell id="w3LlIIUNzbDRQgeO9Z__-35" value="&lt;font style=&quot;font-size: 14px;&quot;&gt;A minimum spanning tree problem is different than a single source shortest path problem.&amp;nbsp; In an MST, we are not taking a single source node and finding the shortest paths to it from all other nodes.&amp;nbsp; Instead, we are finding the cheapest path which connects all vertices.&lt;/font&gt;" style="text;html=1;strokeColor=none;fillColor=none;align=left;verticalAlign=middle;whiteSpace=wrap;rounded=0;" vertex="1" parent="1">
          <mxGeometry x="40" y="80" width="280" height="140" as="geometry" />
        </mxCell>
        <mxCell id="w3LlIIUNzbDRQgeO9Z__-36" value="&lt;font style=&quot;font-size: 18px;&quot;&gt;&lt;b&gt;A&lt;/b&gt;&lt;/font&gt;" style="ellipse;whiteSpace=wrap;html=1;aspect=fixed;" vertex="1" parent="1">
          <mxGeometry x="840" y="190" width="40" height="40" as="geometry" />
        </mxCell>
        <mxCell id="w3LlIIUNzbDRQgeO9Z__-37" value="&lt;font style=&quot;font-size: 18px;&quot;&gt;&lt;b&gt;B&lt;/b&gt;&lt;/font&gt;" style="ellipse;whiteSpace=wrap;html=1;aspect=fixed;" vertex="1" parent="1">
          <mxGeometry x="920" y="190" width="40" height="40" as="geometry" />
        </mxCell>
        <mxCell id="w3LlIIUNzbDRQgeO9Z__-39" value="&lt;font style=&quot;font-size: 18px;&quot;&gt;&lt;b&gt;C&lt;/b&gt;&lt;/font&gt;" style="ellipse;whiteSpace=wrap;html=1;aspect=fixed;" vertex="1" parent="1">
          <mxGeometry x="1000" y="190" width="40" height="40" as="geometry" />
        </mxCell>
        <mxCell id="w3LlIIUNzbDRQgeO9Z__-40" value="&lt;font style=&quot;font-size: 18px;&quot;&gt;&lt;b&gt;D&lt;/b&gt;&lt;/font&gt;" style="ellipse;whiteSpace=wrap;html=1;aspect=fixed;" vertex="1" parent="1">
          <mxGeometry x="1080" y="190" width="40" height="40" as="geometry" />
        </mxCell>
        <mxCell id="w3LlIIUNzbDRQgeO9Z__-41" value="&lt;font style=&quot;font-size: 18px;&quot;&gt;&lt;b&gt;E&lt;/b&gt;&lt;/font&gt;" style="ellipse;whiteSpace=wrap;html=1;aspect=fixed;" vertex="1" parent="1">
          <mxGeometry x="1160" y="190" width="40" height="40" as="geometry" />
        </mxCell>
        <mxCell id="w3LlIIUNzbDRQgeO9Z__-42" value="" style="endArrow=none;html=1;rounded=0;" edge="1" parent="1">
          <mxGeometry width="50" height="50" relative="1" as="geometry">
            <mxPoint x="840" y="260" as="sourcePoint" />
            <mxPoint x="910" y="260" as="targetPoint" />
          </mxGeometry>
        </mxCell>
        <mxCell id="w3LlIIUNzbDRQgeO9Z__-44" value="" style="endArrow=none;html=1;rounded=0;" edge="1" parent="1">
          <mxGeometry width="50" height="50" relative="1" as="geometry">
            <mxPoint x="840" y="320" as="sourcePoint" />
            <mxPoint x="910" y="320" as="targetPoint" />
          </mxGeometry>
        </mxCell>
        <mxCell id="w3LlIIUNzbDRQgeO9Z__-45" value="" style="endArrow=none;html=1;rounded=0;" edge="1" parent="1">
          <mxGeometry width="50" height="50" relative="1" as="geometry">
            <mxPoint x="840" y="290" as="sourcePoint" />
            <mxPoint x="910" y="290" as="targetPoint" />
          </mxGeometry>
        </mxCell>
        <mxCell id="w3LlIIUNzbDRQgeO9Z__-46" value="" style="endArrow=none;html=1;rounded=0;" edge="1" parent="1">
          <mxGeometry width="50" height="50" relative="1" as="geometry">
            <mxPoint x="840" y="344.5" as="sourcePoint" />
            <mxPoint x="910" y="344.5" as="targetPoint" />
          </mxGeometry>
        </mxCell>
        <mxCell id="w3LlIIUNzbDRQgeO9Z__-47" value="" style="endArrow=none;html=1;rounded=0;" edge="1" parent="1">
          <mxGeometry width="50" height="50" relative="1" as="geometry">
            <mxPoint x="840" y="410" as="sourcePoint" />
            <mxPoint x="910" y="410" as="targetPoint" />
          </mxGeometry>
        </mxCell>
        <mxCell id="w3LlIIUNzbDRQgeO9Z__-48" value="" style="endArrow=none;html=1;rounded=0;" edge="1" parent="1">
          <mxGeometry width="50" height="50" relative="1" as="geometry">
            <mxPoint x="840" y="440" as="sourcePoint" />
            <mxPoint x="910" y="440" as="targetPoint" />
          </mxGeometry>
        </mxCell>
        <mxCell id="w3LlIIUNzbDRQgeO9Z__-49" value="" style="endArrow=none;html=1;rounded=0;" edge="1" parent="1">
          <mxGeometry width="50" height="50" relative="1" as="geometry">
            <mxPoint x="840" y="379.5" as="sourcePoint" />
            <mxPoint x="910" y="379.5" as="targetPoint" />
          </mxGeometry>
        </mxCell>
        <mxCell id="w3LlIIUNzbDRQgeO9Z__-50" value="6" style="text;html=1;strokeColor=none;fillColor=none;align=center;verticalAlign=middle;whiteSpace=wrap;rounded=0;" vertex="1" parent="1">
          <mxGeometry x="920" y="280" width="40" height="20" as="geometry" />
        </mxCell>
        <mxCell id="w3LlIIUNzbDRQgeO9Z__-51" value="8" style="text;html=1;strokeColor=none;fillColor=none;align=center;verticalAlign=middle;whiteSpace=wrap;rounded=0;" vertex="1" parent="1">
          <mxGeometry x="920" y="305" width="40" height="20" as="geometry" />
        </mxCell>
        <mxCell id="w3LlIIUNzbDRQgeO9Z__-52" value="5" style="text;html=1;strokeColor=none;fillColor=none;align=center;verticalAlign=middle;whiteSpace=wrap;rounded=0;" vertex="1" parent="1">
          <mxGeometry x="920" y="250" width="40" height="20" as="geometry" />
        </mxCell>
        <mxCell id="w3LlIIUNzbDRQgeO9Z__-53" value="20" style="text;html=1;strokeColor=none;fillColor=none;align=center;verticalAlign=middle;whiteSpace=wrap;rounded=0;" vertex="1" parent="1">
          <mxGeometry x="920" y="430" width="40" height="20" as="geometry" />
        </mxCell>
        <mxCell id="w3LlIIUNzbDRQgeO9Z__-54" value="10" style="text;html=1;strokeColor=none;fillColor=none;align=center;verticalAlign=middle;whiteSpace=wrap;rounded=0;" vertex="1" parent="1">
          <mxGeometry x="920" y="335" width="40" height="20" as="geometry" />
        </mxCell>
        <mxCell id="w3LlIIUNzbDRQgeO9Z__-55" value="15" style="text;html=1;strokeColor=none;fillColor=none;align=center;verticalAlign=middle;whiteSpace=wrap;rounded=0;" vertex="1" parent="1">
          <mxGeometry x="920" y="400" width="40" height="20" as="geometry" />
        </mxCell>
        <mxCell id="w3LlIIUNzbDRQgeO9Z__-56" value="13" style="text;html=1;strokeColor=none;fillColor=none;align=center;verticalAlign=middle;whiteSpace=wrap;rounded=0;" vertex="1" parent="1">
          <mxGeometry x="920" y="370" width="40" height="20" as="geometry" />
        </mxCell>
        <mxCell id="w3LlIIUNzbDRQgeO9Z__-57" value="Initially, we must inventory the nodes and arrage the edges from cheapest to most expensive" style="text;html=1;strokeColor=none;fillColor=none;align=left;verticalAlign=middle;whiteSpace=wrap;rounded=0;fontSize=14;" vertex="1" parent="1">
          <mxGeometry x="990" y="265" width="210" height="100" as="geometry" />
        </mxCell>
        <mxCell id="w3LlIIUNzbDRQgeO9Z__-59" value="&lt;font style=&quot;font-size: 18px;&quot;&gt;&lt;b&gt;B&lt;/b&gt;&lt;/font&gt;" style="ellipse;whiteSpace=wrap;html=1;aspect=fixed;" vertex="1" parent="1">
          <mxGeometry x="640" y="630" width="40" height="40" as="geometry" />
        </mxCell>
        <mxCell id="w3LlIIUNzbDRQgeO9Z__-62" value="&lt;font style=&quot;font-size: 18px;&quot;&gt;&lt;b&gt;C&lt;/b&gt;&lt;/font&gt;" style="ellipse;whiteSpace=wrap;html=1;aspect=fixed;" vertex="1" parent="1">
          <mxGeometry x="440" y="790" width="40" height="40" as="geometry" />
        </mxCell>
        <mxCell id="w3LlIIUNzbDRQgeO9Z__-65" value="&lt;font style=&quot;font-size: 18px;&quot;&gt;&lt;b&gt;E&lt;/b&gt;&lt;/font&gt;" style="ellipse;whiteSpace=wrap;html=1;aspect=fixed;" vertex="1" parent="1">
          <mxGeometry x="280" y="710" width="40" height="40" as="geometry" />
        </mxCell>
        <mxCell id="w3LlIIUNzbDRQgeO9Z__-68" value="&lt;font style=&quot;font-size: 18px;&quot;&gt;&lt;b&gt;A&lt;/b&gt;&lt;/font&gt;" style="ellipse;whiteSpace=wrap;html=1;aspect=fixed;" vertex="1" parent="1">
          <mxGeometry x="440" y="630" width="40" height="40" as="geometry" />
        </mxCell>
        <mxCell id="w3LlIIUNzbDRQgeO9Z__-69" value="&lt;font style=&quot;font-size: 18px;&quot;&gt;&lt;b&gt;D&lt;/b&gt;&lt;/font&gt;" style="ellipse;whiteSpace=wrap;html=1;aspect=fixed;" vertex="1" parent="1">
          <mxGeometry x="640" y="790" width="40" height="40" as="geometry" />
        </mxCell>
        <mxCell id="w3LlIIUNzbDRQgeO9Z__-77" value="&lt;font style=&quot;font-size: 18px;&quot;&gt;&lt;b&gt;B&lt;/b&gt;&lt;/font&gt;" style="ellipse;whiteSpace=wrap;html=1;aspect=fixed;" vertex="1" parent="1">
          <mxGeometry x="640" y="1010" width="40" height="40" as="geometry" />
        </mxCell>
        <mxCell id="w3LlIIUNzbDRQgeO9Z__-78" value="&lt;font style=&quot;font-size: 18px;&quot;&gt;&lt;b&gt;C&lt;/b&gt;&lt;/font&gt;" style="ellipse;whiteSpace=wrap;html=1;aspect=fixed;" vertex="1" parent="1">
          <mxGeometry x="440" y="1170" width="40" height="40" as="geometry" />
        </mxCell>
        <mxCell id="w3LlIIUNzbDRQgeO9Z__-79" value="&lt;font style=&quot;font-size: 18px;&quot;&gt;&lt;b&gt;E&lt;/b&gt;&lt;/font&gt;" style="ellipse;whiteSpace=wrap;html=1;aspect=fixed;" vertex="1" parent="1">
          <mxGeometry x="280" y="1090" width="40" height="40" as="geometry" />
        </mxCell>
        <mxCell id="w3LlIIUNzbDRQgeO9Z__-80" value="&lt;font style=&quot;font-size: 18px;&quot;&gt;&lt;b&gt;A&lt;/b&gt;&lt;/font&gt;" style="ellipse;whiteSpace=wrap;html=1;aspect=fixed;" vertex="1" parent="1">
          <mxGeometry x="440" y="1010" width="40" height="40" as="geometry" />
        </mxCell>
        <mxCell id="w3LlIIUNzbDRQgeO9Z__-81" value="&lt;font style=&quot;font-size: 18px;&quot;&gt;&lt;b&gt;D&lt;/b&gt;&lt;/font&gt;" style="ellipse;whiteSpace=wrap;html=1;aspect=fixed;" vertex="1" parent="1">
          <mxGeometry x="640" y="1170" width="40" height="40" as="geometry" />
        </mxCell>
        <mxCell id="w3LlIIUNzbDRQgeO9Z__-82" value="&lt;font style=&quot;font-size: 18px;&quot;&gt;&lt;b&gt;B&lt;/b&gt;&lt;/font&gt;" style="ellipse;whiteSpace=wrap;html=1;aspect=fixed;" vertex="1" parent="1">
          <mxGeometry x="640" y="1370" width="40" height="40" as="geometry" />
        </mxCell>
        <mxCell id="w3LlIIUNzbDRQgeO9Z__-83" value="&lt;font style=&quot;font-size: 18px;&quot;&gt;&lt;b&gt;C&lt;/b&gt;&lt;/font&gt;" style="ellipse;whiteSpace=wrap;html=1;aspect=fixed;" vertex="1" parent="1">
          <mxGeometry x="440" y="1530" width="40" height="40" as="geometry" />
        </mxCell>
        <mxCell id="w3LlIIUNzbDRQgeO9Z__-84" value="&lt;font style=&quot;font-size: 18px;&quot;&gt;&lt;b&gt;E&lt;/b&gt;&lt;/font&gt;" style="ellipse;whiteSpace=wrap;html=1;aspect=fixed;" vertex="1" parent="1">
          <mxGeometry x="280" y="1450" width="40" height="40" as="geometry" />
        </mxCell>
        <mxCell id="w3LlIIUNzbDRQgeO9Z__-85" value="&lt;font style=&quot;font-size: 18px;&quot;&gt;&lt;b&gt;A&lt;/b&gt;&lt;/font&gt;" style="ellipse;whiteSpace=wrap;html=1;aspect=fixed;" vertex="1" parent="1">
          <mxGeometry x="440" y="1370" width="40" height="40" as="geometry" />
        </mxCell>
        <mxCell id="w3LlIIUNzbDRQgeO9Z__-86" value="&lt;font style=&quot;font-size: 18px;&quot;&gt;&lt;b&gt;D&lt;/b&gt;&lt;/font&gt;" style="ellipse;whiteSpace=wrap;html=1;aspect=fixed;" vertex="1" parent="1">
          <mxGeometry x="640" y="1530" width="40" height="40" as="geometry" />
        </mxCell>
        <mxCell id="w3LlIIUNzbDRQgeO9Z__-92" style="rounded=0;orthogonalLoop=1;jettySize=auto;html=1;exitX=1;exitY=0.5;exitDx=0;exitDy=0;entryX=0;entryY=0.5;entryDx=0;entryDy=0;endArrow=none;endFill=0;" edge="1" parent="1">
          <mxGeometry relative="1" as="geometry">
            <mxPoint x="480" y="650" as="sourcePoint" />
            <mxPoint x="640" y="650" as="targetPoint" />
          </mxGeometry>
        </mxCell>
        <mxCell id="w3LlIIUNzbDRQgeO9Z__-93" value="5" style="text;html=1;strokeColor=none;fillColor=none;align=center;verticalAlign=middle;whiteSpace=wrap;rounded=0;" vertex="1" parent="1">
          <mxGeometry x="550" y="610" width="30" height="30" as="geometry" />
        </mxCell>
        <mxCell id="w3LlIIUNzbDRQgeO9Z__-94" value="&lt;font style=&quot;font-size: 18px;&quot;&gt;&lt;b&gt;AB&lt;/b&gt;&lt;/font&gt;" style="ellipse;whiteSpace=wrap;html=1;aspect=fixed;" vertex="1" parent="1">
          <mxGeometry x="850" y="630" width="40" height="40" as="geometry" />
        </mxCell>
        <mxCell id="w3LlIIUNzbDRQgeO9Z__-97" value="" style="endArrow=none;html=1;rounded=0;" edge="1" parent="1">
          <mxGeometry width="50" height="50" relative="1" as="geometry">
            <mxPoint x="840" y="740" as="sourcePoint" />
            <mxPoint x="910" y="740" as="targetPoint" />
          </mxGeometry>
        </mxCell>
        <mxCell id="w3LlIIUNzbDRQgeO9Z__-98" value="" style="endArrow=none;html=1;rounded=0;" edge="1" parent="1">
          <mxGeometry width="50" height="50" relative="1" as="geometry">
            <mxPoint x="840" y="710" as="sourcePoint" />
            <mxPoint x="910" y="710" as="targetPoint" />
          </mxGeometry>
        </mxCell>
        <mxCell id="w3LlIIUNzbDRQgeO9Z__-99" value="" style="endArrow=none;html=1;rounded=0;" edge="1" parent="1">
          <mxGeometry width="50" height="50" relative="1" as="geometry">
            <mxPoint x="840" y="764.5" as="sourcePoint" />
            <mxPoint x="910" y="764.5" as="targetPoint" />
          </mxGeometry>
        </mxCell>
        <mxCell id="w3LlIIUNzbDRQgeO9Z__-100" value="" style="endArrow=none;html=1;rounded=0;" edge="1" parent="1">
          <mxGeometry width="50" height="50" relative="1" as="geometry">
            <mxPoint x="840" y="830" as="sourcePoint" />
            <mxPoint x="910" y="830" as="targetPoint" />
          </mxGeometry>
        </mxCell>
        <mxCell id="w3LlIIUNzbDRQgeO9Z__-101" value="" style="endArrow=none;html=1;rounded=0;" edge="1" parent="1">
          <mxGeometry width="50" height="50" relative="1" as="geometry">
            <mxPoint x="840" y="860" as="sourcePoint" />
            <mxPoint x="910" y="860" as="targetPoint" />
          </mxGeometry>
        </mxCell>
        <mxCell id="w3LlIIUNzbDRQgeO9Z__-102" value="" style="endArrow=none;html=1;rounded=0;" edge="1" parent="1">
          <mxGeometry width="50" height="50" relative="1" as="geometry">
            <mxPoint x="840" y="799.5" as="sourcePoint" />
            <mxPoint x="910" y="799.5" as="targetPoint" />
          </mxGeometry>
        </mxCell>
        <mxCell id="w3LlIIUNzbDRQgeO9Z__-103" value="6" style="text;html=1;strokeColor=none;fillColor=none;align=center;verticalAlign=middle;whiteSpace=wrap;rounded=0;" vertex="1" parent="1">
          <mxGeometry x="920" y="700" width="40" height="20" as="geometry" />
        </mxCell>
        <mxCell id="w3LlIIUNzbDRQgeO9Z__-104" value="8" style="text;html=1;strokeColor=none;fillColor=none;align=center;verticalAlign=middle;whiteSpace=wrap;rounded=0;" vertex="1" parent="1">
          <mxGeometry x="920" y="725" width="40" height="20" as="geometry" />
        </mxCell>
        <mxCell id="w3LlIIUNzbDRQgeO9Z__-106" value="20" style="text;html=1;strokeColor=none;fillColor=none;align=center;verticalAlign=middle;whiteSpace=wrap;rounded=0;" vertex="1" parent="1">
          <mxGeometry x="920" y="850" width="40" height="20" as="geometry" />
        </mxCell>
        <mxCell id="w3LlIIUNzbDRQgeO9Z__-107" value="10" style="text;html=1;strokeColor=none;fillColor=none;align=center;verticalAlign=middle;whiteSpace=wrap;rounded=0;" vertex="1" parent="1">
          <mxGeometry x="920" y="755" width="40" height="20" as="geometry" />
        </mxCell>
        <mxCell id="w3LlIIUNzbDRQgeO9Z__-108" value="15" style="text;html=1;strokeColor=none;fillColor=none;align=center;verticalAlign=middle;whiteSpace=wrap;rounded=0;" vertex="1" parent="1">
          <mxGeometry x="920" y="820" width="40" height="20" as="geometry" />
        </mxCell>
        <mxCell id="w3LlIIUNzbDRQgeO9Z__-109" value="13" style="text;html=1;strokeColor=none;fillColor=none;align=center;verticalAlign=middle;whiteSpace=wrap;rounded=0;" vertex="1" parent="1">
          <mxGeometry x="920" y="790" width="40" height="20" as="geometry" />
        </mxCell>
        <mxCell id="w3LlIIUNzbDRQgeO9Z__-110" value="&lt;font style=&quot;font-size: 18px;&quot;&gt;&lt;b&gt;C&lt;/b&gt;&lt;/font&gt;" style="ellipse;whiteSpace=wrap;html=1;aspect=fixed;" vertex="1" parent="1">
          <mxGeometry x="1000" y="630" width="40" height="40" as="geometry" />
        </mxCell>
        <mxCell id="w3LlIIUNzbDRQgeO9Z__-111" value="&lt;font style=&quot;font-size: 18px;&quot;&gt;&lt;b&gt;D&lt;/b&gt;&lt;/font&gt;" style="ellipse;whiteSpace=wrap;html=1;aspect=fixed;" vertex="1" parent="1">
          <mxGeometry x="1080" y="630" width="40" height="40" as="geometry" />
        </mxCell>
        <mxCell id="w3LlIIUNzbDRQgeO9Z__-112" value="&lt;font style=&quot;font-size: 18px;&quot;&gt;&lt;b&gt;E&lt;/b&gt;&lt;/font&gt;" style="ellipse;whiteSpace=wrap;html=1;aspect=fixed;" vertex="1" parent="1">
          <mxGeometry x="1160" y="630" width="40" height="40" as="geometry" />
        </mxCell>
        <mxCell id="w3LlIIUNzbDRQgeO9Z__-113" value="" style="shape=flexArrow;endArrow=classic;html=1;rounded=0;" edge="1" parent="1">
          <mxGeometry width="50" height="50" relative="1" as="geometry">
            <mxPoint x="554.5" y="880" as="sourcePoint" />
            <mxPoint x="554.5" y="970" as="targetPoint" />
          </mxGeometry>
        </mxCell>
        <mxCell id="w3LlIIUNzbDRQgeO9Z__-114" style="rounded=0;orthogonalLoop=1;jettySize=auto;html=1;exitX=1;exitY=0.5;exitDx=0;exitDy=0;entryX=0;entryY=0.5;entryDx=0;entryDy=0;endArrow=none;endFill=0;" edge="1" parent="1">
          <mxGeometry relative="1" as="geometry">
            <mxPoint x="480" y="1030" as="sourcePoint" />
            <mxPoint x="640" y="1030" as="targetPoint" />
          </mxGeometry>
        </mxCell>
        <mxCell id="w3LlIIUNzbDRQgeO9Z__-115" value="5" style="text;html=1;strokeColor=none;fillColor=none;align=center;verticalAlign=middle;whiteSpace=wrap;rounded=0;" vertex="1" parent="1">
          <mxGeometry x="550" y="990" width="30" height="30" as="geometry" />
        </mxCell>
        <mxCell id="w3LlIIUNzbDRQgeO9Z__-116" value="&lt;font style=&quot;font-size: 18px;&quot;&gt;&lt;b&gt;AB&lt;/b&gt;&lt;/font&gt;" style="ellipse;whiteSpace=wrap;html=1;aspect=fixed;" vertex="1" parent="1">
          <mxGeometry x="850" y="1010" width="40" height="40" as="geometry" />
        </mxCell>
        <mxCell id="w3LlIIUNzbDRQgeO9Z__-117" value="" style="endArrow=none;html=1;rounded=0;" edge="1" parent="1">
          <mxGeometry width="50" height="50" relative="1" as="geometry">
            <mxPoint x="840" y="1080" as="sourcePoint" />
            <mxPoint x="910" y="1080" as="targetPoint" />
          </mxGeometry>
        </mxCell>
        <mxCell id="w3LlIIUNzbDRQgeO9Z__-119" value="" style="endArrow=none;html=1;rounded=0;" edge="1" parent="1">
          <mxGeometry width="50" height="50" relative="1" as="geometry">
            <mxPoint x="840" y="1104.5" as="sourcePoint" />
            <mxPoint x="910" y="1104.5" as="targetPoint" />
          </mxGeometry>
        </mxCell>
        <mxCell id="w3LlIIUNzbDRQgeO9Z__-120" value="" style="endArrow=none;html=1;rounded=0;" edge="1" parent="1">
          <mxGeometry width="50" height="50" relative="1" as="geometry">
            <mxPoint x="840" y="1170" as="sourcePoint" />
            <mxPoint x="910" y="1170" as="targetPoint" />
          </mxGeometry>
        </mxCell>
        <mxCell id="w3LlIIUNzbDRQgeO9Z__-121" value="" style="endArrow=none;html=1;rounded=0;" edge="1" parent="1">
          <mxGeometry width="50" height="50" relative="1" as="geometry">
            <mxPoint x="840" y="1200" as="sourcePoint" />
            <mxPoint x="910" y="1200" as="targetPoint" />
          </mxGeometry>
        </mxCell>
        <mxCell id="w3LlIIUNzbDRQgeO9Z__-122" value="" style="endArrow=none;html=1;rounded=0;" edge="1" parent="1">
          <mxGeometry width="50" height="50" relative="1" as="geometry">
            <mxPoint x="840" y="1139.5" as="sourcePoint" />
            <mxPoint x="910" y="1139.5" as="targetPoint" />
          </mxGeometry>
        </mxCell>
        <mxCell id="w3LlIIUNzbDRQgeO9Z__-124" value="8" style="text;html=1;strokeColor=none;fillColor=none;align=center;verticalAlign=middle;whiteSpace=wrap;rounded=0;" vertex="1" parent="1">
          <mxGeometry x="920" y="1065" width="40" height="20" as="geometry" />
        </mxCell>
        <mxCell id="w3LlIIUNzbDRQgeO9Z__-125" value="20" style="text;html=1;strokeColor=none;fillColor=none;align=center;verticalAlign=middle;whiteSpace=wrap;rounded=0;" vertex="1" parent="1">
          <mxGeometry x="920" y="1190" width="40" height="20" as="geometry" />
        </mxCell>
        <mxCell id="w3LlIIUNzbDRQgeO9Z__-126" value="10" style="text;html=1;strokeColor=none;fillColor=none;align=center;verticalAlign=middle;whiteSpace=wrap;rounded=0;" vertex="1" parent="1">
          <mxGeometry x="920" y="1095" width="40" height="20" as="geometry" />
        </mxCell>
        <mxCell id="w3LlIIUNzbDRQgeO9Z__-127" value="15" style="text;html=1;strokeColor=none;fillColor=none;align=center;verticalAlign=middle;whiteSpace=wrap;rounded=0;" vertex="1" parent="1">
          <mxGeometry x="920" y="1160" width="40" height="20" as="geometry" />
        </mxCell>
        <mxCell id="w3LlIIUNzbDRQgeO9Z__-128" value="13" style="text;html=1;strokeColor=none;fillColor=none;align=center;verticalAlign=middle;whiteSpace=wrap;rounded=0;" vertex="1" parent="1">
          <mxGeometry x="920" y="1130" width="40" height="20" as="geometry" />
        </mxCell>
        <mxCell id="w3LlIIUNzbDRQgeO9Z__-129" value="&lt;font style=&quot;font-size: 18px;&quot;&gt;&lt;b&gt;CD&lt;/b&gt;&lt;/font&gt;" style="ellipse;whiteSpace=wrap;html=1;aspect=fixed;" vertex="1" parent="1">
          <mxGeometry x="1000" y="1010" width="40" height="40" as="geometry" />
        </mxCell>
        <mxCell id="w3LlIIUNzbDRQgeO9Z__-131" value="&lt;font style=&quot;font-size: 18px;&quot;&gt;&lt;b&gt;E&lt;/b&gt;&lt;/font&gt;" style="ellipse;whiteSpace=wrap;html=1;aspect=fixed;" vertex="1" parent="1">
          <mxGeometry x="1160" y="1010" width="40" height="40" as="geometry" />
        </mxCell>
        <mxCell id="w3LlIIUNzbDRQgeO9Z__-132" style="rounded=0;orthogonalLoop=1;jettySize=auto;html=1;exitX=1;exitY=0.5;exitDx=0;exitDy=0;entryX=0;entryY=0.5;entryDx=0;entryDy=0;endArrow=none;endFill=0;" edge="1" parent="1">
          <mxGeometry relative="1" as="geometry">
            <mxPoint x="480" y="1189" as="sourcePoint" />
            <mxPoint x="640" y="1189" as="targetPoint" />
          </mxGeometry>
        </mxCell>
        <mxCell id="w3LlIIUNzbDRQgeO9Z__-133" value="6" style="text;html=1;strokeColor=none;fillColor=none;align=center;verticalAlign=middle;whiteSpace=wrap;rounded=0;" vertex="1" parent="1">
          <mxGeometry x="550" y="1190" width="30" height="30" as="geometry" />
        </mxCell>
        <mxCell id="w3LlIIUNzbDRQgeO9Z__-134" value="&lt;font style=&quot;font-size: 18px;&quot;&gt;&lt;b&gt;ABCD&lt;/b&gt;&lt;/font&gt;" style="ellipse;whiteSpace=wrap;html=1;aspect=fixed;" vertex="1" parent="1">
          <mxGeometry x="850" y="1370" width="40" height="40" as="geometry" />
        </mxCell>
        <mxCell id="w3LlIIUNzbDRQgeO9Z__-136" value="" style="endArrow=none;html=1;rounded=0;" edge="1" parent="1">
          <mxGeometry width="50" height="50" relative="1" as="geometry">
            <mxPoint x="840" y="1444.5" as="sourcePoint" />
            <mxPoint x="910" y="1444.5" as="targetPoint" />
          </mxGeometry>
        </mxCell>
        <mxCell id="w3LlIIUNzbDRQgeO9Z__-137" value="" style="endArrow=none;html=1;rounded=0;" edge="1" parent="1">
          <mxGeometry width="50" height="50" relative="1" as="geometry">
            <mxPoint x="840" y="1510" as="sourcePoint" />
            <mxPoint x="910" y="1510" as="targetPoint" />
          </mxGeometry>
        </mxCell>
        <mxCell id="w3LlIIUNzbDRQgeO9Z__-138" value="" style="endArrow=none;html=1;rounded=0;" edge="1" parent="1">
          <mxGeometry width="50" height="50" relative="1" as="geometry">
            <mxPoint x="840" y="1540" as="sourcePoint" />
            <mxPoint x="910" y="1540" as="targetPoint" />
          </mxGeometry>
        </mxCell>
        <mxCell id="w3LlIIUNzbDRQgeO9Z__-139" value="" style="endArrow=none;html=1;rounded=0;" edge="1" parent="1">
          <mxGeometry width="50" height="50" relative="1" as="geometry">
            <mxPoint x="840" y="1479.5" as="sourcePoint" />
            <mxPoint x="910" y="1479.5" as="targetPoint" />
          </mxGeometry>
        </mxCell>
        <mxCell id="w3LlIIUNzbDRQgeO9Z__-141" value="20" style="text;html=1;strokeColor=none;fillColor=none;align=center;verticalAlign=middle;whiteSpace=wrap;rounded=0;" vertex="1" parent="1">
          <mxGeometry x="920" y="1530" width="40" height="20" as="geometry" />
        </mxCell>
        <mxCell id="w3LlIIUNzbDRQgeO9Z__-142" value="10" style="text;html=1;strokeColor=none;fillColor=none;align=center;verticalAlign=middle;whiteSpace=wrap;rounded=0;" vertex="1" parent="1">
          <mxGeometry x="920" y="1435" width="40" height="20" as="geometry" />
        </mxCell>
        <mxCell id="w3LlIIUNzbDRQgeO9Z__-143" value="15" style="text;html=1;strokeColor=none;fillColor=none;align=center;verticalAlign=middle;whiteSpace=wrap;rounded=0;" vertex="1" parent="1">
          <mxGeometry x="920" y="1500" width="40" height="20" as="geometry" />
        </mxCell>
        <mxCell id="w3LlIIUNzbDRQgeO9Z__-144" value="13" style="text;html=1;strokeColor=none;fillColor=none;align=center;verticalAlign=middle;whiteSpace=wrap;rounded=0;" vertex="1" parent="1">
          <mxGeometry x="920" y="1470" width="40" height="20" as="geometry" />
        </mxCell>
        <mxCell id="w3LlIIUNzbDRQgeO9Z__-146" value="&lt;font style=&quot;font-size: 18px;&quot;&gt;&lt;b&gt;E&lt;/b&gt;&lt;/font&gt;" style="ellipse;whiteSpace=wrap;html=1;aspect=fixed;" vertex="1" parent="1">
          <mxGeometry x="1160" y="1370" width="40" height="40" as="geometry" />
        </mxCell>
        <mxCell id="w3LlIIUNzbDRQgeO9Z__-147" style="rounded=0;orthogonalLoop=1;jettySize=auto;html=1;exitX=1;exitY=0.5;exitDx=0;exitDy=0;entryX=0;entryY=0.5;entryDx=0;entryDy=0;endArrow=none;endFill=0;" edge="1" parent="1">
          <mxGeometry relative="1" as="geometry">
            <mxPoint x="480" y="1390" as="sourcePoint" />
            <mxPoint x="640" y="1390" as="targetPoint" />
          </mxGeometry>
        </mxCell>
        <mxCell id="w3LlIIUNzbDRQgeO9Z__-148" value="5" style="text;html=1;strokeColor=none;fillColor=none;align=center;verticalAlign=middle;whiteSpace=wrap;rounded=0;" vertex="1" parent="1">
          <mxGeometry x="550" y="1350" width="30" height="30" as="geometry" />
        </mxCell>
        <mxCell id="w3LlIIUNzbDRQgeO9Z__-149" style="rounded=0;orthogonalLoop=1;jettySize=auto;html=1;exitX=1;exitY=0.5;exitDx=0;exitDy=0;entryX=0;entryY=0.5;entryDx=0;entryDy=0;endArrow=none;endFill=0;" edge="1" parent="1">
          <mxGeometry relative="1" as="geometry">
            <mxPoint x="480" y="1549" as="sourcePoint" />
            <mxPoint x="640" y="1549" as="targetPoint" />
          </mxGeometry>
        </mxCell>
        <mxCell id="w3LlIIUNzbDRQgeO9Z__-150" value="6" style="text;html=1;strokeColor=none;fillColor=none;align=center;verticalAlign=middle;whiteSpace=wrap;rounded=0;" vertex="1" parent="1">
          <mxGeometry x="550" y="1550" width="30" height="30" as="geometry" />
        </mxCell>
        <mxCell id="w3LlIIUNzbDRQgeO9Z__-151" style="rounded=0;orthogonalLoop=1;jettySize=auto;html=1;exitX=0.5;exitY=1;exitDx=0;exitDy=0;entryX=0.5;entryY=0;entryDx=0;entryDy=0;endArrow=none;endFill=0;" edge="1" parent="1">
          <mxGeometry relative="1" as="geometry">
            <mxPoint x="660" y="1410" as="sourcePoint" />
            <mxPoint x="660" y="1530" as="targetPoint" />
          </mxGeometry>
        </mxCell>
        <mxCell id="w3LlIIUNzbDRQgeO9Z__-152" value="8" style="text;html=1;strokeColor=none;fillColor=none;align=center;verticalAlign=middle;whiteSpace=wrap;rounded=0;" vertex="1" parent="1">
          <mxGeometry x="670" y="1450" width="30" height="30" as="geometry" />
        </mxCell>
        <mxCell id="w3LlIIUNzbDRQgeO9Z__-153" value="&lt;font style=&quot;font-size: 18px;&quot;&gt;&lt;b&gt;B&lt;/b&gt;&lt;/font&gt;" style="ellipse;whiteSpace=wrap;html=1;aspect=fixed;" vertex="1" parent="1">
          <mxGeometry x="640" y="1720" width="40" height="40" as="geometry" />
        </mxCell>
        <mxCell id="w3LlIIUNzbDRQgeO9Z__-154" value="&lt;font style=&quot;font-size: 18px;&quot;&gt;&lt;b&gt;C&lt;/b&gt;&lt;/font&gt;" style="ellipse;whiteSpace=wrap;html=1;aspect=fixed;" vertex="1" parent="1">
          <mxGeometry x="440" y="1880" width="40" height="40" as="geometry" />
        </mxCell>
        <mxCell id="w3LlIIUNzbDRQgeO9Z__-155" value="&lt;font style=&quot;font-size: 18px;&quot;&gt;&lt;b&gt;E&lt;/b&gt;&lt;/font&gt;" style="ellipse;whiteSpace=wrap;html=1;aspect=fixed;" vertex="1" parent="1">
          <mxGeometry x="280" y="1800" width="40" height="40" as="geometry" />
        </mxCell>
        <mxCell id="w3LlIIUNzbDRQgeO9Z__-156" value="&lt;font style=&quot;font-size: 18px;&quot;&gt;&lt;b&gt;A&lt;/b&gt;&lt;/font&gt;" style="ellipse;whiteSpace=wrap;html=1;aspect=fixed;" vertex="1" parent="1">
          <mxGeometry x="440" y="1720" width="40" height="40" as="geometry" />
        </mxCell>
        <mxCell id="w3LlIIUNzbDRQgeO9Z__-157" value="&lt;font style=&quot;font-size: 18px;&quot;&gt;&lt;b&gt;D&lt;/b&gt;&lt;/font&gt;" style="ellipse;whiteSpace=wrap;html=1;aspect=fixed;" vertex="1" parent="1">
          <mxGeometry x="640" y="1880" width="40" height="40" as="geometry" />
        </mxCell>
        <mxCell id="w3LlIIUNzbDRQgeO9Z__-158" value="&lt;font style=&quot;font-size: 18px;&quot;&gt;&lt;b&gt;ABCDE&lt;/b&gt;&lt;/font&gt;" style="ellipse;whiteSpace=wrap;html=1;aspect=fixed;" vertex="1" parent="1">
          <mxGeometry x="850" y="1720" width="40" height="40" as="geometry" />
        </mxCell>
        <mxCell id="w3LlIIUNzbDRQgeO9Z__-160" value="" style="endArrow=none;html=1;rounded=0;" edge="1" parent="1">
          <mxGeometry width="50" height="50" relative="1" as="geometry">
            <mxPoint x="840" y="1860" as="sourcePoint" />
            <mxPoint x="910" y="1860" as="targetPoint" />
          </mxGeometry>
        </mxCell>
        <mxCell id="w3LlIIUNzbDRQgeO9Z__-165" value="15" style="text;html=1;strokeColor=none;fillColor=none;align=center;verticalAlign=middle;whiteSpace=wrap;rounded=0;" vertex="1" parent="1">
          <mxGeometry x="920" y="1850" width="40" height="20" as="geometry" />
        </mxCell>
        <mxCell id="w3LlIIUNzbDRQgeO9Z__-167" style="rounded=0;orthogonalLoop=1;jettySize=auto;html=1;exitX=1;exitY=0.5;exitDx=0;exitDy=0;entryX=0;entryY=0.5;entryDx=0;entryDy=0;endArrow=none;endFill=0;" edge="1" parent="1">
          <mxGeometry relative="1" as="geometry">
            <mxPoint x="480" y="1740" as="sourcePoint" />
            <mxPoint x="640" y="1740" as="targetPoint" />
          </mxGeometry>
        </mxCell>
        <mxCell id="w3LlIIUNzbDRQgeO9Z__-168" value="5" style="text;html=1;strokeColor=none;fillColor=none;align=center;verticalAlign=middle;whiteSpace=wrap;rounded=0;" vertex="1" parent="1">
          <mxGeometry x="550" y="1700" width="30" height="30" as="geometry" />
        </mxCell>
        <mxCell id="w3LlIIUNzbDRQgeO9Z__-169" style="rounded=0;orthogonalLoop=1;jettySize=auto;html=1;exitX=1;exitY=0.5;exitDx=0;exitDy=0;entryX=0;entryY=0.5;entryDx=0;entryDy=0;endArrow=none;endFill=0;" edge="1" parent="1">
          <mxGeometry relative="1" as="geometry">
            <mxPoint x="480" y="1899" as="sourcePoint" />
            <mxPoint x="640" y="1899" as="targetPoint" />
          </mxGeometry>
        </mxCell>
        <mxCell id="w3LlIIUNzbDRQgeO9Z__-170" value="6" style="text;html=1;strokeColor=none;fillColor=none;align=center;verticalAlign=middle;whiteSpace=wrap;rounded=0;" vertex="1" parent="1">
          <mxGeometry x="550" y="1900" width="30" height="30" as="geometry" />
        </mxCell>
        <mxCell id="w3LlIIUNzbDRQgeO9Z__-171" style="rounded=0;orthogonalLoop=1;jettySize=auto;html=1;exitX=0.5;exitY=1;exitDx=0;exitDy=0;entryX=0.5;entryY=0;entryDx=0;entryDy=0;endArrow=none;endFill=0;" edge="1" parent="1">
          <mxGeometry relative="1" as="geometry">
            <mxPoint x="660" y="1760" as="sourcePoint" />
            <mxPoint x="660" y="1880" as="targetPoint" />
          </mxGeometry>
        </mxCell>
        <mxCell id="w3LlIIUNzbDRQgeO9Z__-172" value="8" style="text;html=1;strokeColor=none;fillColor=none;align=center;verticalAlign=middle;whiteSpace=wrap;rounded=0;" vertex="1" parent="1">
          <mxGeometry x="670" y="1800" width="30" height="30" as="geometry" />
        </mxCell>
        <mxCell id="w3LlIIUNzbDRQgeO9Z__-173" value="10 &amp;amp; 13 are discarded because the would allow for a cycle.&amp;nbsp; 20 is discarded for this reason, but also because it is more expensive than the alternative" style="text;html=1;strokeColor=none;fillColor=none;align=left;verticalAlign=middle;whiteSpace=wrap;rounded=0;fontSize=14;" vertex="1" parent="1">
          <mxGeometry x="1010" y="1780" width="210" height="100" as="geometry" />
        </mxCell>
        <mxCell id="w3LlIIUNzbDRQgeO9Z__-174" style="rounded=0;orthogonalLoop=1;jettySize=auto;html=1;exitX=1;exitY=0;exitDx=0;exitDy=0;entryX=0;entryY=0.5;entryDx=0;entryDy=0;endArrow=none;endFill=0;" edge="1" parent="1">
          <mxGeometry relative="1" as="geometry">
            <mxPoint x="314" y="1805" as="sourcePoint" />
            <mxPoint x="440" y="1739" as="targetPoint" />
          </mxGeometry>
        </mxCell>
        <mxCell id="w3LlIIUNzbDRQgeO9Z__-175" value="15" style="text;html=1;strokeColor=none;fillColor=none;align=center;verticalAlign=middle;whiteSpace=wrap;rounded=0;" vertex="1" parent="1">
          <mxGeometry x="350" y="1739" width="30" height="30" as="geometry" />
        </mxCell>
        <mxCell id="w3LlIIUNzbDRQgeO9Z__-176" value="Final result" style="text;html=1;strokeColor=none;fillColor=none;align=left;verticalAlign=middle;whiteSpace=wrap;rounded=0;fontSize=14;" vertex="1" parent="1">
          <mxGeometry x="835" y="2100" width="210" height="100" as="geometry" />
        </mxCell>
        <mxCell id="w3LlIIUNzbDRQgeO9Z__-177" value="" style="shape=flexArrow;endArrow=classic;html=1;rounded=0;" edge="1" parent="1">
          <mxGeometry width="50" height="50" relative="1" as="geometry">
            <mxPoint x="564.5" y="1240" as="sourcePoint" />
            <mxPoint x="564.5" y="1330" as="targetPoint" />
          </mxGeometry>
        </mxCell>
        <mxCell id="w3LlIIUNzbDRQgeO9Z__-178" value="" style="shape=flexArrow;endArrow=classic;html=1;rounded=0;" edge="1" parent="1">
          <mxGeometry width="50" height="50" relative="1" as="geometry">
            <mxPoint x="564.5" y="1600" as="sourcePoint" />
            <mxPoint x="564.5" y="1690" as="targetPoint" />
          </mxGeometry>
        </mxCell>
        <mxCell id="w3LlIIUNzbDRQgeO9Z__-179" value="" style="shape=flexArrow;endArrow=classic;html=1;rounded=0;" edge="1" parent="1">
          <mxGeometry width="50" height="50" relative="1" as="geometry">
            <mxPoint x="564.5" y="1940" as="sourcePoint" />
            <mxPoint x="564.5" y="2030" as="targetPoint" />
          </mxGeometry>
        </mxCell>
      </root>
    </mxGraphModel>
  </diagram>
</mxfile>
